<?xml version="1.0" encoding="iso-8859-1"?>
<!-- Generator: Adobe Illustrator 19.0.0, SVG Export Plug-In . SVG Version: 6.00 Build 0)  -->
<svg version="1.1" id="Layer_1" xmlns="http://www.w3.org/2000/svg" xmlns:xlink="http://www.w3.org/1999/xlink" x="0px" y="0px"
	 viewBox="0 0 512 512" style="enable-background:new 0 0 512 512;" fill="#835afd" xml:space="preserve">
<g>
	<g>
		<g>
			<path d="M422.401,268.76c0.227-0.303,0.462-0.6,0.673-0.915c0.203-0.304,0.379-0.619,0.565-0.931
				c0.171-0.286,0.35-0.565,0.507-0.859c0.17-0.318,0.314-0.645,0.467-0.97c0.145-0.306,0.298-0.608,0.428-0.922
				c0.13-0.315,0.236-0.637,0.35-0.957c0.121-0.337,0.25-0.669,0.354-1.013c0.097-0.32,0.168-0.645,0.249-0.969
				c0.089-0.351,0.187-0.698,0.258-1.056c0.074-0.375,0.118-0.753,0.172-1.13c0.044-0.311,0.104-0.618,0.135-0.933
				c0.138-1.4,0.138-2.811,0-4.211c-0.031-0.315-0.09-0.622-0.135-0.933c-0.054-0.377-0.098-0.755-0.172-1.13
				c-0.071-0.358-0.169-0.705-0.258-1.056c-0.081-0.323-0.152-0.649-0.249-0.969c-0.104-0.344-0.233-0.677-0.354-1.013
				c-0.115-0.32-0.22-0.642-0.35-0.957c-0.13-0.314-0.283-0.616-0.428-0.922c-0.153-0.325-0.297-0.652-0.467-0.97
				c-0.157-0.294-0.337-0.573-0.507-0.859c-0.186-0.312-0.362-0.627-0.565-0.931c-0.211-0.315-0.446-0.612-0.673-0.915
				c-0.19-0.254-0.367-0.515-0.57-0.762c-0.443-0.539-0.909-1.058-1.402-1.551c-0.004-0.004-0.007-0.008-0.011-0.012L271.085,91.582
				c-8.331-8.331-21.839-8.331-30.17,0s-8.331,21.839,0,30.17L353.83,234.667H21.333C9.551,234.667,0,244.218,0,256
				s9.551,21.333,21.333,21.333H353.83L240.915,390.248c-8.331,8.331-8.331,21.839,0,30.17s21.839,8.331,30.17,0l149.333-149.333
				c0.004-0.004,0.007-0.008,0.011-0.012c0.492-0.493,0.959-1.012,1.402-1.551C422.034,269.275,422.211,269.014,422.401,268.76z"
				/>
			<path d="M490.667,85.333c-11.782,0-21.333,9.551-21.333,21.333v298.667c0,11.782,9.551,21.333,21.333,21.333
				S512,417.115,512,405.333V106.667C512,94.885,502.449,85.333,490.667,85.333z" />
		</g>
	</g>
</g>
<g>
</g>
<g>
</g>
<g>
</g>
<g>
</g>
<g>
</g>
<g>
</g>
<g>
</g>
<g>
</g>
<g>
</g>
<g>
</g>
<g>
</g>
<g>
</g>
<g>
</g>
<g>
</g>
<g>
</g>
</svg>
