<svg width="175" height="82" viewBox="0 0 175 82" fill="none" xmlns="http://www.w3.org/2000/svg">
<path d="M5.896 37.216H13.416L12.904 40H1.736L5.672 17.76H9.32L5.896 37.216ZM28.9468 22.08C31.1441 22.08 32.8934 22.6987 34.1947 23.936C35.5174 25.1733 36.1788 26.8373 36.1788 28.928C36.1788 29.4187 36.1254 30.0053 36.0188 30.688C35.9334 31.1573 35.7841 31.7333 35.5708 32.416H22.0988C22.0774 32.5653 22.0668 32.7893 22.0668 33.088C22.0668 34.3467 22.4508 35.3493 23.2188 36.096C24.0081 36.8427 25.0321 37.216 26.2908 37.216C28.2748 37.216 29.8001 36.3947 30.8668 34.752H34.8028C33.9921 36.3733 32.7974 37.7067 31.2188 38.752C29.6401 39.776 27.8161 40.288 25.7467 40.288C24.2748 40.288 22.9841 40 21.8748 39.424C20.7654 38.848 19.9014 38.0267 19.2827 36.96C18.6641 35.872 18.3547 34.6027 18.3547 33.152C18.3547 32.5333 18.4187 31.872 18.5467 31.168C18.8667 29.3547 19.5174 27.7653 20.4987 26.4C21.4801 25.0133 22.6961 23.9467 24.1467 23.2C25.6188 22.4533 27.2188 22.08 28.9468 22.08ZM32.3708 29.792C32.4134 29.408 32.4348 29.1307 32.4348 28.96C32.4348 27.7867 32.0401 26.8587 31.2508 26.176C30.4828 25.4933 29.4801 25.152 28.2428 25.152C26.9414 25.152 25.7681 25.568 24.7228 26.4C23.6774 27.232 22.9627 28.3627 22.5788 29.792H32.3708ZM45.3047 35.104C45.2621 35.4027 45.2407 35.5947 45.2407 35.68C45.2407 36.128 45.3794 36.4587 45.6567 36.672C45.9341 36.864 46.3928 36.96 47.0328 36.96H49.2727L48.7288 40H45.8487C44.4407 40 43.3634 39.7227 42.6167 39.168C41.8701 38.592 41.4967 37.6853 41.4967 36.448C41.4967 35.9787 41.5394 35.5307 41.6247 35.104L43.3527 25.344H41.2727L41.7847 22.368H43.8967L44.6647 17.984H48.3448L47.5767 22.368H51.8328L51.3208 25.344H47.0328L45.3047 35.104ZM81.691 17.76L77.755 40H74.107L76.795 24.768L67.323 40H64.795L60.667 24.768L57.979 40H54.331L58.267 17.76H62.203L66.939 35.2L77.787 17.76H81.691ZM95.5417 22.08C97.7391 22.08 99.4884 22.6987 100.79 23.936C102.112 25.1733 102.774 26.8373 102.774 28.928C102.774 29.4187 102.72 30.0053 102.614 30.688C102.528 31.1573 102.379 31.7333 102.166 32.416H88.6937C88.6724 32.5653 88.6617 32.7893 88.6617 33.088C88.6617 34.3467 89.0457 35.3493 89.8137 36.096C90.6031 36.8427 91.6271 37.216 92.8857 37.216C94.8697 37.216 96.3951 36.3947 97.4618 34.752H101.398C100.587 36.3733 99.3924 37.7067 97.8137 38.752C96.2351 39.776 94.4111 40.288 92.3417 40.288C90.8697 40.288 89.5791 40 88.4697 39.424C87.3604 38.848 86.4964 38.0267 85.8777 36.96C85.2591 35.872 84.9497 34.6027 84.9497 33.152C84.9497 32.5333 85.0137 31.872 85.1417 31.168C85.4617 29.3547 86.1124 27.7653 87.0937 26.4C88.0751 25.0133 89.2911 23.9467 90.7417 23.2C92.2137 22.4533 93.8137 22.08 95.5417 22.08ZM98.9657 29.792C99.0084 29.408 99.0297 29.1307 99.0297 28.96C99.0297 27.7867 98.6351 26.8587 97.8457 26.176C97.0777 25.4933 96.0751 25.152 94.8377 25.152C93.5364 25.152 92.3631 25.568 91.3177 26.4C90.2724 27.232 89.5577 28.3627 89.1737 29.792H98.9657Z" fill="url(#paint0_linear)"/>
<path d="M5.896 37.216L4.91114 37.0427L4.70465 38.216H5.896V37.216ZM13.416 37.216L14.3995 37.3969L14.6167 36.216H13.416V37.216ZM12.904 40V41H13.7369L13.8875 40.1809L12.904 40ZM1.736 40L0.751302 39.8257L0.543482 41H1.736V40ZM5.672 17.76V16.76H4.83344L4.6873 17.5857L5.672 17.76ZM9.32 17.76L10.3049 17.9333L10.5114 16.76H9.32V17.76ZM5.896 38.216H13.416V36.216H5.896V38.216ZM12.4325 37.0351L11.9205 39.8191L13.8875 40.1809L14.3995 37.3969L12.4325 37.0351ZM12.904 39H1.736V41H12.904V39ZM2.7207 40.1743L6.6567 17.9343L4.6873 17.5857L0.751302 39.8257L2.7207 40.1743ZM5.672 18.76H9.32V16.76H5.672V18.76ZM8.33514 17.5867L4.91114 37.0427L6.88087 37.3893L10.3049 17.9333L8.33514 17.5867ZM34.1947 23.936L33.5057 24.6607L33.5116 24.6663L34.1947 23.936ZM36.0188 30.688L37.0026 30.8669L37.0048 30.8547L37.0068 30.8424L36.0188 30.688ZM35.5708 32.416V33.416H36.3059L36.5252 32.7143L35.5708 32.416ZM22.0988 32.416V31.416H21.2315L21.1088 32.2746L22.0988 32.416ZM23.2188 36.096L22.5216 36.8131L22.5316 36.8225L23.2188 36.096ZM30.8668 34.752V33.752H30.3238L30.0281 34.2074L30.8668 34.752ZM34.8028 34.752L35.6972 35.1992L36.4208 33.752H34.8028V34.752ZM31.2188 38.752L31.763 39.591L31.7708 39.5858L31.2188 38.752ZM21.8748 39.424L22.3356 38.5365L22.3356 38.5365L21.8748 39.424ZM19.2827 36.96L18.4134 37.4543L18.4177 37.4617L19.2827 36.96ZM18.5467 31.168L19.5306 31.3469L19.5315 31.3418L18.5467 31.168ZM20.4987 26.4L21.3108 26.9837L21.315 26.9777L20.4987 26.4ZM24.1467 23.2L23.6944 22.3082L23.6891 22.3109L24.1467 23.2ZM32.3708 29.792V30.792H33.2658L33.3646 29.9024L32.3708 29.792ZM31.2508 26.176L30.5863 26.9235L30.5966 26.9324L31.2508 26.176ZM22.5788 29.792L21.613 29.5325L21.2746 30.792H22.5788V29.792ZM28.9468 23.08C30.9481 23.08 32.4299 23.6378 33.5057 24.6607L34.8838 23.2113C33.3569 21.7595 31.34 21.08 28.9468 21.08V23.08ZM33.5116 24.6663C34.6003 25.6848 35.1788 27.0674 35.1788 28.928H37.1788C37.1788 26.6073 36.4345 24.6619 34.8779 23.2057L33.5116 24.6663ZM35.1788 28.928C35.1788 29.3509 35.1324 29.8832 35.0307 30.5336L37.0068 30.8424C37.1185 30.1275 37.1788 29.4865 37.1788 28.928H35.1788ZM35.0349 30.5091C34.9595 30.9235 34.8228 31.457 34.6163 32.1177L36.5252 32.7143C36.7454 32.0097 36.9073 31.3911 37.0026 30.8669L35.0349 30.5091ZM35.5708 31.416H22.0988V33.416H35.5708V31.416ZM21.1088 32.2746C21.0771 32.4966 21.0668 32.7784 21.0668 33.088H23.0668C23.0668 32.8003 23.0777 32.6341 23.0887 32.5574L21.1088 32.2746ZM21.0668 33.088C21.0668 34.5656 21.5262 35.8451 22.5217 36.813L23.9158 35.379C23.3753 34.8535 23.0668 34.1277 23.0668 33.088H21.0668ZM22.5316 36.8225C23.5359 37.7725 24.8199 38.216 26.2908 38.216V36.216C25.2442 36.216 24.4803 35.9128 23.9059 35.3695L22.5316 36.8225ZM26.2908 38.216C28.6081 38.216 30.4515 37.2277 31.7054 35.2966L30.0281 34.2074C29.1487 35.5616 27.9414 36.216 26.2908 36.216V38.216ZM30.8668 35.752H34.8028V33.752H30.8668V35.752ZM33.9083 34.3048C33.1795 35.7624 32.1061 36.9651 30.6667 37.9182L31.7708 39.5858C33.4887 38.4483 34.8047 36.9843 35.6972 35.1992L33.9083 34.3048ZM30.6746 37.913C29.2739 38.8216 27.6429 39.288 25.7467 39.288V41.288C27.9892 41.288 30.0062 40.7304 31.7629 39.591L30.6746 37.913ZM25.7467 39.288C24.4067 39.288 23.2793 39.0265 22.3356 38.5365L21.4139 40.3115C22.6889 40.9735 24.1428 41.288 25.7467 41.288V39.288ZM22.3356 38.5365C21.3924 38.0468 20.6697 37.3582 20.1478 36.4583L18.4177 37.4617C19.1331 38.6951 20.1384 39.6492 21.4139 40.3115L22.3356 38.5365ZM20.152 36.4657C19.6318 35.5508 19.3547 34.4572 19.3547 33.152H17.3547C17.3547 34.7481 17.6963 36.1932 18.4135 37.4543L20.152 36.4657ZM19.3547 33.152C19.3547 32.6018 19.4117 32.0008 19.5306 31.3469L17.5629 30.9891C17.4258 31.7432 17.3547 32.4649 17.3547 33.152H19.3547ZM19.5315 31.3418C19.828 29.662 20.4251 28.2158 21.3108 26.9836L19.6867 25.8164C18.6097 27.3149 17.9055 29.0473 17.562 30.9942L19.5315 31.3418ZM21.315 26.9777C22.2075 25.7165 23.3025 24.7592 24.6044 24.0891L23.6891 22.3109C22.0897 23.1341 20.7527 24.3101 19.6825 25.8223L21.315 26.9777ZM24.5991 24.0918C25.9243 23.4196 27.3683 23.08 28.9468 23.08V21.08C27.0692 21.08 25.3132 21.487 23.6944 22.3082L24.5991 24.0918ZM33.3646 29.9024C33.4076 29.5157 33.4348 29.1907 33.4348 28.96H31.4348C31.4348 29.0707 31.4192 29.3003 31.3769 29.6816L33.3646 29.9024ZM33.4348 28.96C33.4348 27.5367 32.9427 26.3172 31.9049 25.4196L30.5966 26.9324C31.1375 27.4002 31.4348 28.0367 31.4348 28.96H33.4348ZM31.9151 25.4286C30.9283 24.5514 29.6725 24.152 28.2428 24.152V26.152C29.2877 26.152 30.0372 26.4353 30.5864 26.9234L31.9151 25.4286ZM28.2428 24.152C26.7088 24.152 25.3172 24.6488 24.1 25.6176L25.3455 27.1824C26.2189 26.4872 27.1741 26.152 28.2428 26.152V24.152ZM24.1 25.6176C22.8693 26.5971 22.0462 27.9201 21.613 29.5325L23.5445 30.0515C23.8793 28.8052 24.4855 27.8669 25.3455 27.1824L24.1 25.6176ZM22.5788 30.792H32.3708V28.792H22.5788V30.792ZM45.3047 35.104L44.3201 34.9297L44.3172 34.9461L44.3148 34.9626L45.3047 35.104ZM45.6567 36.672L45.047 37.4646L45.0669 37.4799L45.0875 37.4942L45.6567 36.672ZM49.2727 36.96L50.2571 37.1361L50.4676 35.96H49.2727V36.96ZM48.7288 40V41H49.5657L49.7131 40.1761L48.7288 40ZM42.6167 39.168L42.0059 39.9598L42.0131 39.9653L42.0204 39.9707L42.6167 39.168ZM41.6247 35.104L42.6053 35.3001L42.6075 35.2892L42.6094 35.2783L41.6247 35.104ZM43.3527 25.344L44.3374 25.5183L44.5454 24.344H43.3527V25.344ZM41.2727 25.344L40.2872 25.1744L40.086 26.344H41.2727V25.344ZM41.7847 22.368V21.368H40.9421L40.7992 22.1984L41.7847 22.368ZM43.8967 22.368V23.368H44.7368L44.8817 22.5406L43.8967 22.368ZM44.6647 17.984V16.984H43.8247L43.6797 17.8114L44.6647 17.984ZM48.3448 17.984L49.3298 18.1566L49.5352 16.984H48.3448V17.984ZM47.5767 22.368L46.5917 22.1954L46.3863 23.368H47.5767V22.368ZM51.8328 22.368L52.8183 22.5376L53.0195 21.368H51.8328V22.368ZM51.3208 25.344V26.344H52.1634L52.3063 25.5136L51.3208 25.344ZM47.0328 25.344V24.344H46.1942L46.0481 25.1697L47.0328 25.344ZM44.3148 34.9626C44.275 35.2409 44.2407 35.5091 44.2407 35.68H46.2407C46.2407 35.6973 46.2403 35.6757 46.2506 35.5824C46.2597 35.5008 46.2741 35.3895 46.2947 35.2454L44.3148 34.9626ZM44.2407 35.68C44.2407 36.3431 44.4568 37.0106 45.047 37.4646L46.2665 35.8794C46.265 35.8782 46.2668 35.8795 46.2691 35.8825C46.2714 35.8855 46.2702 35.8849 46.2669 35.8773C46.26 35.8608 46.2407 35.8032 46.2407 35.68H44.2407ZM45.0875 37.4942C45.6256 37.8667 46.3446 37.96 47.0328 37.96V35.96C46.7585 35.96 46.5562 35.9391 46.4136 35.9092C46.2675 35.8786 46.221 35.8464 46.226 35.8498L45.0875 37.4942ZM47.0328 37.96H49.2727V35.96H47.0328V37.96ZM48.2884 36.7839L47.7444 39.8239L49.7131 40.1761L50.2571 37.1361L48.2884 36.7839ZM48.7288 39H45.8487V41H48.7288V39ZM45.8487 39C44.5512 39 43.719 38.7411 43.2131 38.3653L42.0204 39.9707C43.0078 40.7042 44.3303 41 45.8487 41V39ZM43.2276 38.3762C42.799 38.0456 42.4967 37.4803 42.4967 36.448H40.4967C40.4967 37.8903 40.9412 39.1384 42.0059 39.9598L43.2276 38.3762ZM42.4967 36.448C42.4967 36.0394 42.5339 35.6574 42.6053 35.3001L40.6442 34.9079C40.545 35.404 40.4967 35.9179 40.4967 36.448H42.4967ZM42.6094 35.2783L44.3374 25.5183L42.3681 25.1697L40.6401 34.9297L42.6094 35.2783ZM43.3527 24.344H41.2727V26.344H43.3527V24.344ZM42.2583 25.5136L42.7703 22.5376L40.7992 22.1984L40.2872 25.1744L42.2583 25.5136ZM41.7847 23.368H43.8967V21.368H41.7847V23.368ZM44.8817 22.5406L45.6497 18.1566L43.6797 17.8114L42.9118 22.1954L44.8817 22.5406ZM44.6647 18.984H48.3448V16.984H44.6647V18.984ZM47.3598 17.8114L46.5917 22.1954L48.5617 22.5406L49.3298 18.1566L47.3598 17.8114ZM47.5767 23.368H51.8328V21.368H47.5767V23.368ZM50.8472 22.1984L50.3352 25.1744L52.3063 25.5136L52.8183 22.5376L50.8472 22.1984ZM51.3208 24.344H47.0328V26.344H51.3208V24.344ZM46.0481 25.1697L44.3201 34.9297L46.2894 35.2783L48.0174 25.5183L46.0481 25.1697ZM81.691 17.76L82.6757 17.9343L82.8835 16.76H81.691V17.76ZM77.755 40V41H78.5936L78.7397 40.1743L77.755 40ZM74.107 40L73.1222 39.8262L72.9151 41H74.107V40ZM76.795 24.768L77.7798 24.9418L75.9458 24.2399L76.795 24.768ZM67.323 40V41H67.8787L68.1722 40.5281L67.323 40ZM64.795 40L63.8298 40.2616L64.0299 41H64.795V40ZM60.667 24.768L61.6322 24.5064L59.6822 24.5942L60.667 24.768ZM57.979 40V41H58.818L58.9638 40.1738L57.979 40ZM54.331 40L53.3463 39.8257L53.1385 41H54.331V40ZM58.267 17.76V16.76H57.4284L57.2823 17.5857L58.267 17.76ZM62.203 17.76L63.1681 17.4979L62.9677 16.76H62.203V17.76ZM66.939 35.2L65.974 35.4621L66.5756 37.6776L67.7881 35.7282L66.939 35.2ZM77.787 17.76V16.76H77.2314L76.9379 17.2318L77.787 17.76ZM80.7063 17.5857L76.7703 39.8257L78.7397 40.1743L82.6757 17.9343L80.7063 17.5857ZM77.755 39H74.107V41H77.755V39ZM75.0918 40.1738L77.7798 24.9418L75.8102 24.5942L73.1222 39.8262L75.0918 40.1738ZM75.9458 24.2399L66.4738 39.4719L68.1722 40.5281L77.6442 25.2961L75.9458 24.2399ZM67.323 39H64.795V41H67.323V39ZM65.7602 39.7384L61.6322 24.5064L59.7018 25.0296L63.8298 40.2616L65.7602 39.7384ZM59.6822 24.5942L56.9942 39.8262L58.9638 40.1738L61.6518 24.9418L59.6822 24.5942ZM57.979 39H54.331V41H57.979V39ZM55.3157 40.1743L59.2517 17.9343L57.2823 17.5857L53.3463 39.8257L55.3157 40.1743ZM58.267 18.76H62.203V16.76H58.267V18.76ZM61.238 18.0221L65.974 35.4621L67.9041 34.9379L63.1681 17.4979L61.238 18.0221ZM67.7881 35.7282L78.6361 18.2882L76.9379 17.2318L66.0899 34.6718L67.7881 35.7282ZM77.787 18.76H81.691V16.76H77.787V18.76ZM100.79 23.936L100.101 24.6607L100.107 24.6663L100.79 23.936ZM102.614 30.688L103.598 30.8669L103.6 30.8547L103.602 30.8424L102.614 30.688ZM102.166 32.416V33.416H102.901L103.12 32.7143L102.166 32.416ZM88.6937 32.416V31.416H87.8265L87.7038 32.2746L88.6937 32.416ZM89.8137 36.096L89.1166 36.8131L89.1265 36.8225L89.8137 36.096ZM97.4618 34.752V33.752H96.9188L96.6231 34.2074L97.4618 34.752ZM101.398 34.752L102.292 35.1992L103.016 33.752H101.398V34.752ZM97.8137 38.752L98.358 39.591L98.3658 39.5858L97.8137 38.752ZM88.4697 39.424L88.9306 38.5365L88.9306 38.5365L88.4697 39.424ZM85.8777 36.96L85.0084 37.4543L85.0127 37.4617L85.8777 36.96ZM85.1417 31.168L86.1256 31.3469L86.1265 31.3418L85.1417 31.168ZM87.0937 26.4L87.9058 26.9837L87.91 26.9777L87.0937 26.4ZM90.7417 23.2L90.2894 22.3082L90.2841 22.3109L90.7417 23.2ZM98.9657 29.792V30.792H99.8608L99.9596 29.9024L98.9657 29.792ZM97.8457 26.176L97.1813 26.9235L97.1916 26.9324L97.8457 26.176ZM89.1737 29.792L88.208 29.5325L87.8696 30.792H89.1737V29.792ZM95.5417 23.08C97.5431 23.08 99.0249 23.6378 100.101 24.6607L101.479 23.2113C99.9519 21.7595 97.935 21.08 95.5417 21.08V23.08ZM100.107 24.6663C101.195 25.6848 101.774 27.0674 101.774 28.928H103.774C103.774 26.6073 103.029 24.6619 101.473 23.2057L100.107 24.6663ZM101.774 28.928C101.774 29.3509 101.727 29.8832 101.626 30.5336L103.602 30.8424C103.713 30.1275 103.774 29.4865 103.774 28.928H101.774ZM101.63 30.5091C101.555 30.9235 101.418 31.457 101.211 32.1177L103.12 32.7143C103.34 32.0097 103.502 31.3911 103.598 30.8669L101.63 30.5091ZM102.166 31.416H88.6937V33.416H102.166V31.416ZM87.7038 32.2746C87.6721 32.4966 87.6617 32.7784 87.6617 33.088H89.6617C89.6617 32.8003 89.6727 32.6341 89.6837 32.5574L87.7038 32.2746ZM87.6617 33.088C87.6617 34.5656 88.1212 35.8451 89.1167 36.813L90.5108 35.379C89.9703 34.8535 89.6617 34.1277 89.6617 33.088H87.6617ZM89.1265 36.8225C90.1309 37.7725 91.4149 38.216 92.8857 38.216V36.216C91.8392 36.216 91.0753 35.9128 90.5009 35.3695L89.1265 36.8225ZM92.8857 38.216C95.2031 38.216 97.0465 37.2277 98.3004 35.2966L96.6231 34.2074C95.7437 35.5616 94.5364 36.216 92.8857 36.216V38.216ZM97.4618 35.752H101.398V33.752H97.4618V35.752ZM100.503 34.3048C99.7745 35.7624 98.7011 36.9651 97.2617 37.9182L98.3658 39.5858C100.084 38.4483 101.4 36.9843 102.292 35.1992L100.503 34.3048ZM97.2696 37.913C95.8689 38.8216 94.2379 39.288 92.3417 39.288V41.288C94.5842 41.288 96.6012 40.7304 98.3579 39.591L97.2696 37.913ZM92.3417 39.288C91.0017 39.288 89.8743 39.0265 88.9306 38.5365L88.0089 40.3115C89.2839 40.9735 90.7378 41.288 92.3417 41.288V39.288ZM88.9306 38.5365C87.9874 38.0468 87.2647 37.3582 86.7428 36.4583L85.0127 37.4617C85.7281 38.6951 86.7334 39.6492 88.0089 40.3115L88.9306 38.5365ZM86.747 36.4657C86.2268 35.5508 85.9497 34.4572 85.9497 33.152H83.9497C83.9497 34.7481 84.2913 36.1932 85.0085 37.4543L86.747 36.4657ZM85.9497 33.152C85.9497 32.6018 86.0067 32.0008 86.1256 31.3469L84.1579 30.9891C84.0208 31.7432 83.9497 32.4649 83.9497 33.152H85.9497ZM86.1265 31.3418C86.423 29.662 87.0201 28.2158 87.9058 26.9836L86.2817 25.8164C85.2047 27.3149 84.5005 29.0473 84.157 30.9942L86.1265 31.3418ZM87.91 26.9777C88.8025 25.7165 89.8975 24.7592 91.1994 24.0891L90.2841 22.3109C88.6847 23.1341 87.3476 24.3101 86.2775 25.8223L87.91 26.9777ZM91.1941 24.0918C92.5193 23.4196 93.9633 23.08 95.5417 23.08V21.08C93.6642 21.08 91.9082 21.487 90.2894 22.3082L91.1941 24.0918ZM99.9596 29.9024C100.003 29.5157 100.03 29.1907 100.03 28.96H98.0297C98.0297 29.0707 98.0142 29.3003 97.9719 29.6816L99.9596 29.9024ZM100.03 28.96C100.03 27.5367 99.5377 26.3172 98.4999 25.4196L97.1916 26.9324C97.7325 27.4002 98.0297 28.0367 98.0297 28.96H100.03ZM98.5101 25.4286C97.5233 24.5514 96.2675 24.152 94.8377 24.152V26.152C95.8827 26.152 96.6322 26.4353 97.1814 26.9234L98.5101 25.4286ZM94.8377 24.152C93.3038 24.152 91.9122 24.6488 90.695 25.6176L91.9405 27.1824C92.8139 26.4872 93.7691 26.152 94.8377 26.152V24.152ZM90.695 25.6176C89.4643 26.5971 88.6412 27.9201 88.208 29.5325L90.1395 30.0515C90.4743 28.8052 91.0805 27.8669 91.9405 27.1824L90.695 25.6176ZM89.1737 30.792H98.9657V28.792H89.1737V30.792Z" fill="url(#paint1_linear)"/>
<path d="M120.086 23.848L117.018 39.2735H112.775L113.061 37.7539C111.781 38.9199 110.204 39.5029 108.331 39.5029C107.126 39.5029 106.018 39.2257 105.005 38.6714C103.992 38.1171 103.179 37.3238 102.568 36.2916C101.975 35.2403 101.679 34.0074 101.679 32.593C101.679 30.8918 102.051 29.3626 102.797 28.0055C103.561 26.6292 104.594 25.5588 105.893 24.7942C107.193 24.0105 108.627 23.6187 110.194 23.6187C112.564 23.6187 114.237 24.3928 115.212 25.9411L115.613 23.848H120.086ZM109.707 35.8042C110.586 35.8042 111.37 35.594 112.058 35.1734C112.746 34.7338 113.281 34.1317 113.664 33.3671C114.046 32.6025 114.237 31.7233 114.237 30.7293C114.237 29.678 113.922 28.8465 113.291 28.2348C112.679 27.6232 111.819 27.3173 110.71 27.3173C109.831 27.3173 109.047 27.5372 108.359 27.9768C107.671 28.3973 107.136 28.9899 106.754 29.7544C106.371 30.519 106.18 31.3983 106.18 32.3923C106.18 33.4436 106.486 34.2751 107.098 34.8867C107.728 35.4984 108.598 35.8042 109.707 35.8042Z" fill="url(#paint2_linear)"/>
<path d="M125.632 39.5029C124.294 39.5029 123.023 39.3595 121.819 39.0728C120.634 38.767 119.707 38.3751 119.038 37.8973L120.758 34.6573C121.427 35.097 122.239 35.4506 123.195 35.7182C124.17 35.9858 125.145 36.1196 126.119 36.1196C127.133 36.1196 127.888 35.9954 128.385 35.7469C128.882 35.4793 129.13 35.1065 129.13 34.6287C129.13 34.2464 128.91 33.9692 128.471 33.7972C128.031 33.6252 127.324 33.4436 126.349 33.2524C125.24 33.0422 124.323 32.8128 123.596 32.5643C122.889 32.3158 122.268 31.9144 121.733 31.3601C121.217 30.7866 120.959 30.0125 120.959 29.0376C120.959 27.3364 121.666 26.008 123.08 25.0523C124.514 24.0965 126.387 23.6187 128.7 23.6187C129.77 23.6187 130.812 23.7333 131.825 23.9627C132.838 24.1921 133.698 24.5075 134.406 24.9089L132.8 28.1775C131.538 27.3938 130.019 27.0019 128.241 27.0019C127.266 27.0019 126.521 27.1453 126.005 27.432C125.508 27.7187 125.259 28.0819 125.259 28.5216C125.259 28.923 125.479 29.2192 125.919 29.4104C126.358 29.5824 127.094 29.7736 128.127 29.9838C129.216 30.1941 130.105 30.4235 130.793 30.6719C131.5 30.9013 132.112 31.2932 132.628 31.8475C133.144 32.4018 133.402 33.1568 133.402 34.1126C133.402 35.8329 132.676 37.1614 131.223 38.098C129.79 39.0346 127.926 39.5029 125.632 39.5029Z" fill="url(#paint3_linear)"/>
<path d="M145.595 30.5573L150.899 39.2735H145.71L142.04 33.2811L139.316 35.5462L138.57 39.2735H134.097L138.341 17.999H142.814L140.434 29.8978L147.831 23.848H153.652L145.595 30.5573Z" fill="url(#paint4_linear)"/>
<g filter="url(#filter0_d)">
<path d="M95.0842 14.9024V7.73438C95.0842 4.56737 97.6516 2 100.819 2H162.463C165.63 2 168.198 4.56737 168.198 7.73438V47.8751C168.198 51.0421 165.63 53.6094 162.463 53.6094H152.428L155.782 69.2603C156.075 70.6282 154.436 71.563 153.408 70.6141L138.092 56.4766H100.819C97.6516 56.4766 95.0842 53.9093 95.0842 50.7422V47.8751" stroke="url(#paint5_linear)" stroke-width="4"/>
</g>
<defs>
<filter id="filter0_d" x="89.0842" y="0" width="85.1134" height="81.008" filterUnits="userSpaceOnUse" color-interpolation-filters="sRGB">
<feFlood flood-opacity="0" result="BackgroundImageFix"/>
<feColorMatrix in="SourceAlpha" type="matrix" values="0 0 0 0 0 0 0 0 0 0 0 0 0 0 0 0 0 0 127 0"/>
<feOffset dy="4"/>
<feGaussianBlur stdDeviation="2"/>
<feColorMatrix type="matrix" values="0 0 0 0 0 0 0 0 0 0 0 0 0 0 0 0 0 0 0.25 0"/>
<feBlend mode="normal" in2="BackgroundImageFix" result="effect1_dropShadow"/>
<feBlend mode="normal" in="SourceGraphic" in2="effect1_dropShadow" result="shape"/>
</filter>
<linearGradient id="paint0_linear" x1="92.5" y1="29" x2="7.02659" y2="29" gradientUnits="userSpaceOnUse">
<stop stop-color="white" stop-opacity="0"/>
<stop offset="1" stop-color="white"/>
</linearGradient>
<linearGradient id="paint1_linear" x1="1" y1="33" x2="95.7819" y2="32.4993" gradientUnits="userSpaceOnUse">
<stop stop-color="#835AFD"/>
<stop offset="1" stop-color="#835AFD" stop-opacity="0.1"/>
</linearGradient>
<linearGradient id="paint2_linear" x1="101.679" y1="17.999" x2="113.758" y2="52.1105" gradientUnits="userSpaceOnUse">
<stop stop-color="#485BFF"/>
<stop offset="1" stop-color="#FF59F8"/>
</linearGradient>
<linearGradient id="paint3_linear" x1="101.679" y1="17.999" x2="113.758" y2="52.1105" gradientUnits="userSpaceOnUse">
<stop stop-color="#485BFF"/>
<stop offset="1" stop-color="#FF59F8"/>
</linearGradient>
<linearGradient id="paint4_linear" x1="101.679" y1="17.999" x2="113.758" y2="52.1105" gradientUnits="userSpaceOnUse">
<stop stop-color="#485BFF"/>
<stop offset="1" stop-color="#FF59F8"/>
</linearGradient>
<linearGradient id="paint5_linear" x1="95.0842" y1="2" x2="155.295" y2="76.547" gradientUnits="userSpaceOnUse">
<stop stop-color="#485BFF"/>
<stop offset="1" stop-color="#FF59F8"/>
</linearGradient>
</defs>
</svg>
